{"title":"Willow (Special Edition) [1988]DVDRip Xvid THC (YumYum)","uid":6609072,"size":739639834,"categoryP":"video","categoryS":"movies","magnet":"?xt=urn:btih:95d09bb624a6f9a3f027e4af5898740f246207c8&amp;dn=Willow+%28Special+Edition%29+%5B1988%5DDVDRip+Xvid+THC+%28YumYum%29&amp;tr=udp%3A%2F%2Ftracker.openbittorrent.com%3A80&amp;tr=udp%3A%2F%2Fopen.demonii.com%3A1337&amp;tr=udp%3A%2F%2Ftracker.coppersurfer.tk%3A6969&amp;tr=udp%3A%2F%2Fexodus.desync.com%3A6969","seeders":1,"leechers":0,"uploader":"Wizard2011","files":2,"time":1313518245,"description":"\n\nWillow, a small farmer/apprentice magician, meets Madmartigan, a great swordsman, and together they journey through a war-torn land of magic and monsters, to save a baby princess from death at the hands of an evil queen. \n\nVideo\nID                               : 0\nFormat                           : MPEG-4 Visual\nFormat profile                   : Advanced Simple@L5\nFormat settings, BVOP            : 1\nFormat settings, QPel            : No\nFormat settings, GMC             : No warppoints\nFormat settings, Matrix          : Custom\nCodec ID                         : XVID\nCodec ID/Hint                    : XviD\nDuration                         : 2h 5mn\nBit rate                         : 653 Kbps\nWidth                            : 608 pixels\nHeight                           : 272 pixels\nDisplay aspect ratio             : 2.25:1\nFrame rate                       : 23.976 fps\nColor space                      : YUV\nChroma subsampling               : 4:2:0\nBit depth                        : 8 bits\nScan type                        : Progressive\nCompression mode                 : Lossy\nBits/(Pixel*Frame)               : 0.165\nStream size                      : 587 MiB (83%)\nWriting library                  : XviD 1.1.2 (UTC 2006-11-01)\n\nAudio\nID                               : 1\nFormat                           : MPEG Audio\nFormat version                   : Version 1\nFormat profile                   : Layer 3\nMode                             : Joint stereo\nMode extension                   : MS Stereo\nCodec ID                         : 55\nCodec ID/Hint                    : MP3\nDuration                         : 2h 5mn\nBit rate mode                    : Variable\nBit rate                         : 119 Kbps\nNominal bit rate                 : 128 Kbps\nChannel(s)                       : 2 channels\nSampling rate                    : 48.0 KHz\nCompression mode                 : Lossy\nStream size                      : 107 MiB (15%)\nAlignment                        : Aligned on interleaves\nInterleave, duration             : 24 ms (0.58 video frame)\nInterleave, preload duration     : 154 ms\nLanguage                         : English\n\nAs always enjoy our upload, and if you have the time feel free to join below\n\n","torrent":{"xt":"urn:btih:95d09bb624a6f9a3f027e4af5898740f246207c8","amp;dn":"Willow+%28Special+Edition%29+%5B1988%5DDVDRip+Xvid+THC+%28YumYum%29","amp;tr":["udp%3A%2F%2Ftracker.openbittorrent.com%3A80","udp%3A%2F%2Fopen.demonii.com%3A1337","udp%3A%2F%2Ftracker.coppersurfer.tk%3A6969","udp%3A%2F%2Fexodus.desync.com%3A6969"],"infoHash":"95d09bb624a6f9a3f027e4af5898740f246207c8","infoHashBuffer":{"type":"Buffer","data":[149,208,155,182,36,166,249,163,240,39,228,175,88,152,116,15,36,98,7,200]},"announce":[],"urlList":[]}}